<?xml version="1.0" standalone="no"?> <!DOCTYPE svg PUBLIC "-//W3C//DTD SVG 20010904//EN" "http://www.w3.org/TR/2001/REC-SVG-20010904/DTD/svg10.dtd"> <svg version="1.0" xmlns="http://www.w3.org/2000/svg" width="520.000000pt" height="396.000000pt" viewBox="0 0 520.000000 396.000000" preserveAspectRatio="xMidYMid meet"> <g transform="translate(0.000000,396.000000) scale(0.100000,-0.100000)" fill="#ffffff" stroke="none"> <path d="M630 2340 l0 -1040 70 0 70 0 2 968 3 967 1475 5 1475 5 3 68 3 67 -1551 0 -1550 0 0 -1040z"/> <path d="M869 3150 c-12 -8 -17 -2069 -4 -2074 6 -2 38 -1 73 3 l63 6 2 965 2 965 1475 2 1475 2 0 67 0 66 -1538 2 c-847 0 -1543 -1 -1548 -4z"/> <path d="M2588 2933 l-1498 -3 -2 -1020 c-1 -561 -2 -1027 -2 -1036 -1 -15 54 -16 617 -15 l618 2 -3 -133 -3 -133 -93 3 -93 3 3 -101 3 -102 500 1 500 0 0 93 0 93 -92 3 -93 3 0 134 0 135 615 0 615 0 2 1015 c1 558 2 1025 2 1038 1 20 -4 22 -49 22 -27 0 -724 -1 -1547 -2z m1447 -1040 c0 -712 -3 -898 -12 -897 -7 1 -638 2 -1403 3 l-1390 1 0 893 c0 492 2 896 4 898 2 2 634 3 1403 2 l1398 -2 0 -898z m-1194 -1020 c6 -6 13 -47 15 -90 6 -120 14 -174 30 -197 18 -26 18 -28 -6 -54 -20 -21 -27 -22 -242 -22 -192 0 -224 2 -240 17 -22 20 -23 31 -1 74 13 25 19 66 21 152 4 110 6 119 26 127 32 14 382 8 397 -7z"/> <path d="M2828 2503 c-27 -2 -48 -5 -48 -7 0 -3 -108 -308 -249 -706 -113 -317 -160 -440 -173 -455 -4 -5 -8 -17 -8 -27 0 -15 9 -18 64 -18 39 0 67 5 73 13 6 6 42 104 82 217 40 113 99 279 131 370 33 91 79 221 104 290 49 138 80 218 103 267 18 38 12 64 -14 61 -10 -1 -39 -3 -65 -5z"/> <path d="M2954 2186 c-3 -7 -4 -42 -2 -77 l3 -64 105 -38 c58 -22 158 -57 223 -80 112 -40 141 -60 100 -73 -10 -3 -27 -10 -38 -15 -11 -4 -65 -24 -120 -43 -55 -19 -139 -49 -187 -67 l-88 -32 0 -53 c0 -29 -3 -59 -6 -68 -10 -25 22 -30 64 -10 37 18 93 41 367 154 83 34 154 65 159 70 15 15 11 163 -5 172 -8 5 -59 26 -114 47 -164 64 -336 136 -392 164 -61 31 -62 31 -69 13z"/> <path d="M2240 2159 c-36 -17 -92 -42 -125 -54 -33 -13 -98 -40 -145 -60 -47 -20 -116 -48 -155 -62 -38 -14 -74 -29 -78 -33 -5 -4 -9 -44 -10 -88 l-2 -81 165 -67 c91 -37 222 -91 292 -121 70 -30 131 -52 135 -50 5 3 7 36 5 75 l-4 69 -96 37 c-53 20 -142 53 -197 72 -134 48 -155 57 -155 70 0 6 46 27 103 47 209 73 332 118 338 125 4 4 10 40 13 80 8 85 9 85 -84 41z"/> <path d="M4275 2711 c-3 -6 -7 -444 -8 -973 l-2 -963 -610 -2 -610 -1 -3 -66 -3 -66 686 0 685 0 2 1015 c1 558 2 1025 2 1038 1 20 -4 22 -66 25 -37 2 -69 -2 -73 -7z"/> <path d="M4538 2493 l-38 -4 -2 -967 -3 -967 -638 -3 -638 -2 3 -65 3 -66 705 0 705 0 0 1038 0 1038 -30 1 c-16 1 -47 -1 -67 -3z"/> </g> </svg>